<?xml version="1.0" encoding="UTF-8" standalone="no"?>
<!-- Created with Inkscape (http://www.inkscape.org/) -->

<!--
blue  	0802c3ff
red  	fc0000ff
-->

<svg
  width="228.33542mm"
  height="270.93332mm"
  viewBox="0 0 228.33542 270.93332"
  version="1.1"
  id="svg1"
  xml:space="preserve"
  xmlns="http://www.w3.org/2000/svg"
  xmlns:svg="http://www.w3.org/2000/svg">
  <g
    id="layer1"
    transform="translate(4,0)">
    <path
      fill="#ffffff"
      style="display:inline;fill:#ffffff;fill-opacity:1"
      d="m 132.57054,173.23276 v -10.31875 h 17.06563 17.06562 v -3.96875 -3.96875 H 149.63617 132.57054 V 102.71442 50.452318 l -4.00409,0.07304 -4.00409,0.07304 -42.827158,56.021382 c -23.554938,30.81176 -42.827161,56.08277 -42.827161,56.15781 0,0.075 19.288125,0.13642 42.8625,0.13642 h 42.862499 v 10.31875 10.31875 h 3.96875 3.96875 z M 74.992805,154.3812 c 0.208016,-0.32742 11.416823,-19.88344 24.908458,-43.45781 13.491637,-23.574374 24.575587,-42.912107 24.631017,-42.972741 0.0554,-0.06063 0.10076,19.495381 0.10076,43.457811 v 43.56805 H 99.623817 74.614593 Z"
      id="spars"
      />
    <path
      fill="#C81010"
      style="display:inline;fill:#c81010;fill-opacity:1"
      d="m 113.65283,228.76431 -13.956768,0.0155 -13.774922,0.0155 -0.181849,-0.54351 c -0.14435,-0.43143 3.184922,-5.08222 7.077605,-10.62953 7.833014,-11.16251 7.549184,-11.21477 7.639574,-12.20607 0.0917,-1.00606 -1.236531,-1.15201 -11.409887,-2.01659 -10.99379,-0.93431 -18.904004,-1.78914 -29.501042,-3.08842 -4.292864,-0.52634 -8.332052,-0.97045 -8.975972,-0.98695 l -1.222722,0.3337 -4.46582,8.12462 c -5.190791,9.44355 -4.438257,9.22799 -6.142038,10.25753 -1.319851,0.79754 -5.828249,0.46663 -7.441605,0.38906 -0.537023,-0.0258 0.875655,-5.28074 2.155566,-10.88329 1.279911,-5.60255 2.450375,-10.00324 2.428563,-10.41854 -0.0053,-0.10056 -1.216307,-0.24054 -2.668144,-0.47315 -1.451836,-0.2326 -3.928827,-0.53043 -5.456796,-0.82058 -1.527969,-0.29015 -6.606869,-1.34318 -11.321689,-2.15112 -5.381542,-0.9222 -8.705855,-1.64304 -8.777206,-1.71434 -0.07135,-0.0713 1.3256673,-1.97787 2.961603,-4.18908 l 2.974428,-4.02038 4.65352,0.15849 c 16.484432,0.56141 66.343832,0.4228 101.160291,-0.28123 l 5.22552,-0.10567 7.9375,-0.2066 2.05052,-0.14556 c 1.12779,-0.0801 4.19365,-0.21315 6.81302,-0.29575 11.88391,-0.37474 30.51229,-1.296 42.59792,-2.10666 3.20146,-0.21475 8.67833,-0.5747 12.17083,-0.79991 3.4925,-0.2252 7.83829,-0.58319 9.6573,-0.79553 1.81901,-0.21234 4.08119,-0.38145 5.02708,-0.37545 l 1.71979,0.0106 -2.38125,2.25517 c -7.88025,7.46301 -13.86791,11.5121 -20.76979,14.24111 -0.9482,0.37492 -2.01574,0.85907 -2.38125,1.05607 -9.32822,5.02772 -34.59787,8.60501 -53.35907,8.61401 l -2.95595,0.001 -0.88051,1.03896 c -0.48428,0.57144 -4.33333,6.10411 -8.55343,12.07257 z"
      id="hull"
      />
  </g>
</svg>
